<mxfile host="Electron" modified="2024-04-22T01:16:04.061Z" agent="Mozilla/5.0 (X11; Linux x86_64) AppleWebKit/537.36 (KHTML, like Gecko) draw.io/24.2.5 Chrome/120.0.6099.109 Electron/28.1.0 Safari/537.36" etag="-2_D8sLz-65oDfqZ3MG7" version="24.2.5" type="device">
  <diagram name="Page-1" id="FpYwo3ey_8zWX2axnXDT">
    <mxGraphModel dx="1114" dy="835" grid="1" gridSize="10" guides="1" tooltips="1" connect="1" arrows="1" fold="1" page="1" pageScale="1" pageWidth="850" pageHeight="1100" math="0" shadow="0">
      <root>
        <mxCell id="0" />
        <mxCell id="1" parent="0" />
        <mxCell id="gZ9fCFItCHIIKmVfvnyV-5" style="edgeStyle=orthogonalEdgeStyle;rounded=0;orthogonalLoop=1;jettySize=auto;html=1;exitX=1;exitY=0;exitDx=0;exitDy=0;" edge="1" parent="1" source="gZ9fCFItCHIIKmVfvnyV-1">
          <mxGeometry relative="1" as="geometry">
            <mxPoint x="420" y="240" as="targetPoint" />
            <Array as="points">
              <mxPoint x="310" y="270" />
              <mxPoint x="335" y="270" />
              <mxPoint x="335" y="271" />
              <mxPoint x="361" y="271" />
              <mxPoint x="361" y="247" />
              <mxPoint x="425" y="247" />
            </Array>
          </mxGeometry>
        </mxCell>
        <mxCell id="gZ9fCFItCHIIKmVfvnyV-1" value="" style="rounded=0;whiteSpace=wrap;html=1;" vertex="1" parent="1">
          <mxGeometry x="120" y="290" width="190" height="90" as="geometry" />
        </mxCell>
        <mxCell id="gZ9fCFItCHIIKmVfvnyV-2" value="&lt;span id=&quot;output-sentence-box~0&quot; class=&quot;output-sentence&quot;&gt;&lt;span style=&quot;white-space: initial;&quot;&gt;&lt;span data-testid=&quot;output-sentence-0&quot;&gt;&lt;span class=&quot;css-1m8t0fv&quot; id=&quot;output-phrase~0~0&quot;&gt;&lt;span data-testid=&quot;output-word-0-0-0&quot;&gt;&lt;span class=&quot;css-rh820s&quot;&gt;Set &lt;/span&gt;&lt;/span&gt;&lt;/span&gt;&lt;span class=&quot;css-1m8t0fv&quot; id=&quot;output-phrase~0~1&quot;&gt;&lt;span data-testid=&quot;output-word-1-0-0&quot;&gt;&lt;span class=&quot;css-rh820s&quot;&gt;the &lt;/span&gt;&lt;/span&gt;&lt;span data-testid=&quot;output-word-1-0-1&quot;&gt;&lt;span class=&quot;css-0&quot;&gt;timer &lt;/span&gt;&lt;/span&gt;&lt;/span&gt;&lt;span class=&quot;css-1m8t0fv&quot; id=&quot;output-phrase~0~2&quot;&gt;&lt;span data-testid=&quot;output-word-2-0-0&quot;&gt;&lt;span class=&quot;css-rh820s&quot;&gt;to &lt;/span&gt;&lt;/span&gt;&lt;span data-testid=&quot;output-word-2-0-1&quot;&gt;&lt;span class=&quot;css-rh820s&quot;&gt;begin:&lt;/span&gt;&lt;/span&gt;&lt;/span&gt;&lt;/span&gt;&lt;/span&gt;&lt;br/&gt;&lt;br/&gt;    &lt;/span&gt;&lt;span id=&quot;output-sentence-box~1&quot; class=&quot;output-sentence&quot;&gt;&lt;span class=&quot;css-x5hiaf&quot;&gt;&lt;span id=&quot;output-sentence~1&quot;&gt;&lt;span style=&quot;white-space: initial;&quot;&gt;&lt;span data-testid=&quot;output-sentence-1&quot;&gt;&lt;span class=&quot;css-1m8t0fv&quot; id=&quot;output-phrase~1~0&quot;&gt;&lt;span data-testid=&quot;output-word-0-1-0&quot;&gt;&lt;span class=&quot;css-0&quot;&gt;The &lt;/span&gt;&lt;/span&gt;&lt;span data-testid=&quot;output-word-0-1-1&quot;&gt;&lt;span class=&quot;css-0&quot;&gt;task &lt;/span&gt;&lt;/span&gt;&lt;/span&gt;&lt;span class=&quot;css-1m8t0fv&quot; id=&quot;output-phrase~1~1&quot;&gt;&lt;span data-testid=&quot;output-word-1-1-0&quot;&gt;&lt;span class=&quot;css-0&quot;&gt;scheduler &lt;/span&gt;&lt;/span&gt;&lt;/span&gt;&lt;span class=&quot;css-1m8t0fv&quot; id=&quot;output-phrase~1~2&quot;&gt;&lt;span data-testid=&quot;output-word-2-1-0&quot;&gt;&lt;span class=&quot;css-rh820s&quot;&gt;begins &lt;/span&gt;&lt;/span&gt;&lt;/span&gt;&lt;span class=&quot;css-1m8t0fv&quot; id=&quot;output-phrase~1~3&quot;&gt;&lt;span data-testid=&quot;output-word-3-1-0&quot;&gt;&lt;span class=&quot;css-0&quot;&gt;by &lt;/span&gt;&lt;/span&gt;&lt;span data-testid=&quot;output-word-3-1-1&quot;&gt;&lt;span class=&quot;css-rh820s&quot;&gt;setting &lt;/span&gt;&lt;/span&gt;&lt;/span&gt;&lt;span class=&quot;css-1m8t0fv&quot; id=&quot;output-phrase~1~4&quot;&gt;&lt;span data-testid=&quot;output-word-4-1-0&quot;&gt;&lt;span class=&quot;css-0&quot;&gt;a &lt;/span&gt;&lt;/span&gt;&lt;span data-testid=&quot;output-word-4-1-1&quot;&gt;&lt;span class=&quot;css-0&quot;&gt;timer &lt;/span&gt;&lt;/span&gt;&lt;/span&gt;&lt;span class=&quot;css-1m8t0fv&quot; id=&quot;output-phrase~1~5&quot;&gt;&lt;span data-testid=&quot;output-word-5-1-0&quot;&gt;&lt;span class=&quot;css-rh820s&quot;&gt;to &lt;/span&gt;&lt;/span&gt;&lt;span data-testid=&quot;output-word-5-1-1&quot;&gt;&lt;span class=&quot;css-rh820s&quot;&gt;begin &lt;/span&gt;&lt;/span&gt;&lt;/span&gt;&lt;span class=&quot;css-1m8t0fv&quot; id=&quot;output-phrase~1~6&quot;&gt;&lt;span data-testid=&quot;output-word-6-1-0&quot;&gt;&lt;span class=&quot;css-0&quot;&gt;at &lt;/span&gt;&lt;/span&gt;&lt;/span&gt;&lt;span class=&quot;css-1m8t0fv&quot; id=&quot;output-phrase~1~7&quot;&gt;&lt;span data-testid=&quot;output-word-7-1-0&quot;&gt;&lt;span class=&quot;css-0&quot;&gt;a &lt;/span&gt;&lt;/span&gt;&lt;span data-testid=&quot;output-word-7-1-1&quot;&gt;&lt;span class=&quot;css-rh820s&quot;&gt;predetermined &lt;/span&gt;&lt;/span&gt;&lt;span data-testid=&quot;output-word-7-1-2&quot;&gt;&lt;span class=&quot;css-0&quot;&gt;interval.&lt;/span&gt;&lt;/span&gt;&lt;/span&gt;&lt;/span&gt;&lt;/span&gt;&lt;/span&gt;&lt;/span&gt;&lt;/span&gt;" style="text;html=1;align=center;verticalAlign=middle;whiteSpace=wrap;rounded=0;" vertex="1" parent="1">
          <mxGeometry x="130" y="310" width="170" height="40" as="geometry" />
        </mxCell>
        <mxCell id="gZ9fCFItCHIIKmVfvnyV-3" value="&lt;meta charset=&quot;utf-8&quot;&gt;&lt;span&gt;&lt;span&gt;&lt;span&gt;&lt;span&gt;&lt;span id=&quot;output-sentence-box~0&quot; class=&quot;output-sentence&quot;&gt;&lt;span class=&quot;css-x5hiaf&quot;&gt;&lt;span id=&quot;output-sentence~0&quot;&gt;&lt;span style=&quot;white-space: initial;&quot;&gt;&lt;span data-testid=&quot;output-sentence-0&quot;&gt;&lt;span&gt;&lt;span&gt;&lt;span class=&quot;css-1m8t0fv&quot; id=&quot;output-phrase~0~0&quot;&gt;&lt;span data-testid=&quot;output-word-0-0-0&quot;&gt;&lt;span class=&quot;css-0&quot;&gt;An &lt;/span&gt;&lt;/span&gt;&lt;span data-testid=&quot;output-word-0-0-1&quot;&gt;&lt;span class=&quot;css-0&quot;&gt;explanation &lt;/span&gt;&lt;/span&gt;&lt;/span&gt;&lt;/span&gt;&lt;/span&gt;&lt;span&gt;&lt;span&gt;&lt;span class=&quot;css-1m8t0fv&quot; id=&quot;output-phrase~0~1&quot;&gt;&lt;span data-testid=&quot;output-word-1-0-0&quot;&gt;&lt;span class=&quot;css-rh820s&quot;&gt;of &lt;/span&gt;&lt;/span&gt;&lt;/span&gt;&lt;/span&gt;&lt;/span&gt;&lt;span&gt;&lt;span&gt;&lt;span class=&quot;css-1m8t0fv&quot; id=&quot;output-phrase~0~2&quot;&gt;&lt;span data-testid=&quot;output-word-2-0-0&quot;&gt;&lt;span class=&quot;css-0&quot;&gt;Task &lt;/span&gt;&lt;/span&gt;&lt;span data-testid=&quot;output-word-2-0-1&quot;&gt;&lt;span class=&quot;css-0&quot;&gt;Scheduler &lt;/span&gt;&lt;/span&gt;&lt;/span&gt;&lt;/span&gt;&lt;/span&gt;&lt;span&gt;&lt;span&gt;&lt;span class=&quot;css-1m8t0fv&quot; id=&quot;output-phrase~0~3&quot;&gt;&lt;span data-testid=&quot;output-word-3-0-0&quot;&gt;&lt;span class=&quot;css-0&quot;&gt;for &lt;/span&gt;&lt;/span&gt;&lt;/span&gt;&lt;/span&gt;&lt;/span&gt;&lt;span&gt;&lt;span&gt;&lt;span class=&quot;css-1m8t0fv&quot; id=&quot;output-phrase~0~4&quot;&gt;&lt;span data-testid=&quot;output-word-4-0-0&quot;&gt;&lt;span class=&quot;css-0&quot;&gt;TI &lt;/span&gt;&lt;/span&gt;&lt;/span&gt;&lt;/span&gt;&lt;/span&gt;&lt;span&gt;&lt;span&gt;&lt;span class=&quot;css-1m8t0fv&quot; id=&quot;output-phrase~0~5&quot;&gt;&lt;span data-testid=&quot;output-word-5-0-0&quot;&gt;&lt;span class=&quot;css-0&quot;&gt;Hardware&lt;/span&gt;&lt;/span&gt;&lt;/span&gt;&lt;/span&gt;&lt;/span&gt;&lt;/span&gt;&lt;/span&gt;&#xa;&lt;/span&gt;&lt;/span&gt;&lt;/span&gt;&lt;/span&gt;&lt;/span&gt;&lt;/span&gt;&lt;/span&gt;" style="text;html=1;align=center;verticalAlign=middle;whiteSpace=wrap;rounded=0;" vertex="1" parent="1">
          <mxGeometry x="270" y="50" width="310" height="30" as="geometry" />
        </mxCell>
        <mxCell id="gZ9fCFItCHIIKmVfvnyV-9" style="edgeStyle=orthogonalEdgeStyle;rounded=0;orthogonalLoop=1;jettySize=auto;html=1;" edge="1" parent="1" source="gZ9fCFItCHIIKmVfvnyV-6" target="gZ9fCFItCHIIKmVfvnyV-8">
          <mxGeometry relative="1" as="geometry" />
        </mxCell>
        <mxCell id="gZ9fCFItCHIIKmVfvnyV-6" value="" style="rounded=0;whiteSpace=wrap;html=1;" vertex="1" parent="1">
          <mxGeometry x="425" y="155" width="200" height="90" as="geometry" />
        </mxCell>
        <mxCell id="gZ9fCFItCHIIKmVfvnyV-7" value="&lt;span id=&quot;output-sentence-box~0&quot; class=&quot;output-sentence&quot;&gt;&lt;span style=&quot;white-space: initial;&quot;&gt;&lt;span data-testid=&quot;output-sentence-0&quot;&gt;&lt;span class=&quot;css-1m8t0fv&quot; id=&quot;output-phrase~0~0&quot;&gt;&lt;span data-testid=&quot;output-word-0-0-0&quot;&gt;&lt;span class=&quot;css-15iwe0d&quot;&gt;Interrupt &lt;/span&gt;&lt;/span&gt;&lt;/span&gt;&lt;span class=&quot;css-1m8t0fv&quot; id=&quot;output-phrase~0~1&quot;&gt;&lt;span data-testid=&quot;output-word-1-0-0&quot;&gt;&lt;span class=&quot;css-15iwe0d&quot;&gt;Timer&lt;/span&gt;&lt;/span&gt;&lt;/span&gt;&lt;/span&gt;&lt;/span&gt;&lt;br/&gt;&lt;/span&gt;&lt;span id=&quot;output-sentence-box~1&quot; class=&quot;output-sentence&quot;&gt;&lt;span class=&quot;css-x5hiaf&quot;&gt;&lt;span id=&quot;output-sentence~1&quot;&gt;&lt;span style=&quot;white-space: initial;&quot;&gt;&lt;span data-testid=&quot;output-sentence-1&quot;&gt;&lt;span class=&quot;css-1m8t0fv&quot; id=&quot;output-phrase~1~0&quot;&gt;&lt;span data-testid=&quot;output-word-0-1-0&quot;&gt;&lt;span class=&quot;css-1eh0vfs&quot;&gt;The &lt;/span&gt;&lt;/span&gt;&lt;/span&gt;&lt;span class=&quot;css-1m8t0fv&quot; id=&quot;output-phrase~1~1&quot;&gt;&lt;span data-testid=&quot;output-word-1-1-0&quot;&gt;&lt;span class=&quot;css-1ber87j&quot;&gt;TI &lt;/span&gt;&lt;/span&gt;&lt;/span&gt;&lt;span class=&quot;css-1m8t0fv&quot; id=&quot;output-phrase~1~2&quot;&gt;&lt;span data-testid=&quot;output-word-2-1-0&quot;&gt;&lt;span class=&quot;css-1ber87j&quot;&gt;Timer &lt;/span&gt;&lt;/span&gt;&lt;/span&gt;&lt;span class=&quot;css-1m8t0fv&quot; id=&quot;output-phrase~1~3&quot;&gt;&lt;span data-testid=&quot;output-word-3-1-0&quot;&gt;&lt;span class=&quot;css-1eh0vfs&quot;&gt;driver &lt;/span&gt;&lt;/span&gt;&lt;/span&gt;&lt;span class=&quot;css-1m8t0fv&quot; id=&quot;output-phrase~1~4&quot;&gt;&lt;span data-testid=&quot;output-word-4-1-0&quot;&gt;&lt;span class=&quot;css-0&quot;&gt;is &lt;/span&gt;&lt;/span&gt;&lt;span data-testid=&quot;output-word-4-1-1&quot;&gt;&lt;span class=&quot;css-rh820s&quot;&gt;used &lt;/span&gt;&lt;/span&gt;&lt;/span&gt;&lt;span class=&quot;css-1m8t0fv&quot; id=&quot;output-phrase~1~5&quot;&gt;&lt;span data-testid=&quot;output-word-5-1-0&quot;&gt;&lt;span class=&quot;css-15iwe0d&quot;&gt;to &lt;/span&gt;&lt;/span&gt;&lt;span data-testid=&quot;output-word-5-1-1&quot;&gt;&lt;span class=&quot;css-2yp7ui&quot;&gt;configure &lt;/span&gt;&lt;/span&gt;&lt;/span&gt;&lt;span class=&quot;css-1m8t0fv&quot; id=&quot;output-phrase~1~6&quot;&gt;&lt;span data-testid=&quot;output-word-6-1-0&quot;&gt;&lt;span class=&quot;css-15iwe0d&quot;&gt;the &lt;/span&gt;&lt;/span&gt;&lt;span data-testid=&quot;output-word-6-1-1&quot;&gt;&lt;span class=&quot;css-15iwe0d&quot;&gt;timer &lt;/span&gt;&lt;/span&gt;&lt;/span&gt;&lt;span class=&quot;css-1m8t0fv&quot; id=&quot;output-phrase~1~7&quot;&gt;&lt;span data-testid=&quot;output-word-7-1-0&quot;&gt;&lt;span class=&quot;css-0&quot;&gt;to &lt;/span&gt;&lt;/span&gt;&lt;span data-testid=&quot;output-word-7-1-1&quot;&gt;&lt;span class=&quot;css-rh820s&quot;&gt;produce &lt;/span&gt;&lt;/span&gt;&lt;/span&gt;&lt;span class=&quot;css-1m8t0fv&quot; id=&quot;output-phrase~1~8&quot;&gt;&lt;span data-testid=&quot;output-word-8-1-0&quot;&gt;&lt;span class=&quot;css-rh820s&quot;&gt;recurring &lt;/span&gt;&lt;/span&gt;&lt;/span&gt;&lt;span class=&quot;css-1m8t0fv&quot; id=&quot;output-phrase~1~9&quot;&gt;&lt;span data-testid=&quot;output-word-9-1-0&quot;&gt;&lt;span class=&quot;css-0&quot;&gt;interrupts.&lt;/span&gt;&lt;/span&gt;&lt;/span&gt;&lt;/span&gt;&lt;/span&gt;&lt;/span&gt;&lt;/span&gt;&lt;/span&gt;" style="text;html=1;align=center;verticalAlign=middle;whiteSpace=wrap;rounded=0;" vertex="1" parent="1">
          <mxGeometry x="445" y="190" width="135" height="20" as="geometry" />
        </mxCell>
        <mxCell id="gZ9fCFItCHIIKmVfvnyV-11" value="" style="edgeStyle=orthogonalEdgeStyle;rounded=0;orthogonalLoop=1;jettySize=auto;html=1;" edge="1" parent="1" source="gZ9fCFItCHIIKmVfvnyV-8" target="gZ9fCFItCHIIKmVfvnyV-10">
          <mxGeometry relative="1" as="geometry" />
        </mxCell>
        <mxCell id="gZ9fCFItCHIIKmVfvnyV-8" value="&lt;span id=&quot;output-sentence-box~0&quot; class=&quot;output-sentence&quot;&gt;&lt;span style=&quot;white-space: initial;&quot;&gt;&lt;span data-testid=&quot;output-sentence-0&quot;&gt;&lt;span class=&quot;css-1m8t0fv&quot; id=&quot;output-phrase~0~0&quot;&gt;&lt;span data-testid=&quot;output-word-0-0-0&quot;&gt;&lt;span class=&quot;css-rh820s&quot;&gt;Check &lt;/span&gt;&lt;/span&gt;&lt;/span&gt;&lt;span class=&quot;css-1m8t0fv&quot; id=&quot;output-phrase~0~1&quot;&gt;&lt;span data-testid=&quot;output-word-1-0-0&quot;&gt;&lt;span class=&quot;css-rh820s&quot;&gt;the &lt;/span&gt;&lt;/span&gt;&lt;span data-testid=&quot;output-word-1-0-1&quot;&gt;&lt;span class=&quot;css-0&quot;&gt;temperature:&lt;/span&gt;&lt;/span&gt;&lt;/span&gt;&lt;/span&gt;&lt;/span&gt;&lt;br/&gt;&lt;br/&gt;    &lt;/span&gt;&lt;span id=&quot;output-sentence-box~1&quot; class=&quot;output-sentence&quot;&gt;&lt;span class=&quot;css-x5hiaf&quot;&gt;&lt;span id=&quot;output-sentence~1&quot;&gt;&lt;span style=&quot;white-space: initial;&quot;&gt;&lt;span data-testid=&quot;output-sentence-1&quot;&gt;&lt;span class=&quot;css-1m8t0fv&quot; id=&quot;output-phrase~1~0&quot;&gt;&lt;span data-testid=&quot;output-word-0-1-0&quot;&gt;&lt;span class=&quot;css-0&quot;&gt;The &lt;/span&gt;&lt;/span&gt;&lt;span data-testid=&quot;output-word-0-1-1&quot;&gt;&lt;span class=&quot;css-0&quot;&gt;scheduler &lt;/span&gt;&lt;/span&gt;&lt;/span&gt;&lt;span class=&quot;css-1m8t0fv&quot; id=&quot;output-phrase~1~1&quot;&gt;&lt;span data-testid=&quot;output-word-1-1-0&quot;&gt;&lt;span class=&quot;css-rh820s&quot;&gt;starts &lt;/span&gt;&lt;/span&gt;&lt;/span&gt;&lt;span class=&quot;css-1m8t0fv&quot; id=&quot;output-phrase~1~2&quot;&gt;&lt;span data-testid=&quot;output-word-2-1-0&quot;&gt;&lt;span class=&quot;css-0&quot;&gt;the &lt;/span&gt;&lt;/span&gt;&lt;span data-testid=&quot;output-word-2-1-1&quot;&gt;&lt;span class=&quot;css-15iwe0d&quot;&gt;task &lt;/span&gt;&lt;/span&gt;&lt;/span&gt;&lt;span class=&quot;css-1m8t0fv&quot; id=&quot;output-phrase~1~3&quot;&gt;&lt;span data-testid=&quot;output-word-3-1-0&quot;&gt;&lt;span class=&quot;css-2yp7ui&quot;&gt;of &lt;/span&gt;&lt;/span&gt;&lt;/span&gt;&lt;span class=&quot;css-1m8t0fv&quot; id=&quot;output-phrase~1~4&quot;&gt;&lt;span data-testid=&quot;output-word-4-1-0&quot;&gt;&lt;span class=&quot;css-2yp7ui&quot;&gt;taking &lt;/span&gt;&lt;/span&gt;&lt;/span&gt;&lt;span class=&quot;css-1m8t0fv&quot; id=&quot;output-phrase~1~5&quot;&gt;&lt;span data-testid=&quot;output-word-5-1-0&quot;&gt;&lt;span class=&quot;css-15iwe0d&quot;&gt;the &lt;/span&gt;&lt;/span&gt;&lt;span data-testid=&quot;output-word-5-1-1&quot;&gt;&lt;span class=&quot;css-15iwe0d&quot;&gt;temperature &lt;/span&gt;&lt;/span&gt;&lt;/span&gt;&lt;span class=&quot;css-1m8t0fv&quot; id=&quot;output-phrase~1~6&quot;&gt;&lt;span data-testid=&quot;output-word-6-1-0&quot;&gt;&lt;span class=&quot;css-2yp7ui&quot;&gt;when &lt;/span&gt;&lt;/span&gt;&lt;/span&gt;&lt;span class=&quot;css-1m8t0fv&quot; id=&quot;output-phrase~1~7&quot;&gt;&lt;span data-testid=&quot;output-word-7-1-0&quot;&gt;&lt;span class=&quot;css-15iwe0d&quot;&gt;the &lt;/span&gt;&lt;/span&gt;&lt;span data-testid=&quot;output-word-7-1-1&quot;&gt;&lt;span class=&quot;css-15iwe0d&quot;&gt;timer &lt;/span&gt;&lt;/span&gt;&lt;/span&gt;&lt;span class=&quot;css-1m8t0fv&quot; id=&quot;output-phrase~1~8&quot;&gt;&lt;span data-testid=&quot;output-word-8-1-0&quot;&gt;&lt;span class=&quot;css-2yp7ui&quot;&gt;interrupts.&lt;/span&gt;&lt;/span&gt;&lt;/span&gt;&lt;/span&gt;&lt;/span&gt;&lt;/span&gt;&lt;/span&gt;&lt;/span&gt;" style="rounded=0;whiteSpace=wrap;html=1;" vertex="1" parent="1">
          <mxGeometry x="630" y="290" width="160" height="100" as="geometry" />
        </mxCell>
        <mxCell id="gZ9fCFItCHIIKmVfvnyV-13" value="" style="edgeStyle=orthogonalEdgeStyle;rounded=0;orthogonalLoop=1;jettySize=auto;html=1;" edge="1" parent="1" source="gZ9fCFItCHIIKmVfvnyV-10" target="gZ9fCFItCHIIKmVfvnyV-12">
          <mxGeometry relative="1" as="geometry" />
        </mxCell>
        <mxCell id="gZ9fCFItCHIIKmVfvnyV-10" value="&lt;span id=&quot;output-sentence-box~0&quot; class=&quot;output-sentence&quot;&gt;&lt;span class=&quot;css-x5hiaf&quot;&gt;&lt;span id=&quot;output-sentence~0&quot;&gt;&lt;span style=&quot;white-space: initial;&quot;&gt;&lt;span data-testid=&quot;output-sentence-0&quot;&gt;&lt;span class=&quot;css-1m8t0fv&quot; id=&quot;output-phrase~0~0&quot;&gt;&lt;span data-testid=&quot;output-word-0-0-0&quot;&gt;&lt;span class=&quot;css-1eh0vfs&quot;&gt;The &lt;/span&gt;&lt;/span&gt;&lt;span data-testid=&quot;output-word-0-0-1&quot;&gt;&lt;span class=&quot;css-1ber87j&quot;&gt;temperature &lt;/span&gt;&lt;/span&gt;&lt;span data-testid=&quot;output-word-0-0-2&quot;&gt;&lt;span class=&quot;css-1ber87j&quot;&gt;sensor &lt;/span&gt;&lt;/span&gt;&lt;/span&gt;&lt;span class=&quot;css-1m8t0fv&quot; id=&quot;output-phrase~0~1&quot;&gt;&lt;span data-testid=&quot;output-word-1-0-0&quot;&gt;&lt;span class=&quot;css-1ber87j&quot;&gt;and &lt;/span&gt;&lt;/span&gt;&lt;/span&gt;&lt;span class=&quot;css-1m8t0fv&quot; id=&quot;output-phrase~0~2&quot;&gt;&lt;span data-testid=&quot;output-word-2-0-0&quot;&gt;&lt;span class=&quot;css-15iwe0d&quot;&gt;the &lt;/span&gt;&lt;/span&gt;&lt;span data-testid=&quot;output-word-2-0-1&quot;&gt;&lt;span class=&quot;css-15iwe0d&quot;&gt;I2C &lt;/span&gt;&lt;/span&gt;&lt;/span&gt;&lt;span class=&quot;css-1m8t0fv&quot; id=&quot;output-phrase~0~3&quot;&gt;&lt;span data-testid=&quot;output-word-3-0-0&quot;&gt;&lt;span class=&quot;css-15iwe0d&quot;&gt;driver &lt;/span&gt;&lt;/span&gt;&lt;/span&gt;&lt;span class=&quot;css-1m8t0fv&quot; id=&quot;output-phrase~0~4&quot;&gt;&lt;span data-testid=&quot;output-word-4-0-0&quot;&gt;&lt;span class=&quot;css-2yp7ui&quot;&gt;are &lt;/span&gt;&lt;/span&gt;&lt;span data-testid=&quot;output-word-4-0-1&quot;&gt;&lt;span class=&quot;css-15iwe0d&quot;&gt;used &lt;/span&gt;&lt;/span&gt;&lt;/span&gt;&lt;span class=&quot;css-1m8t0fv&quot; id=&quot;output-phrase~0~5&quot;&gt;&lt;span data-testid=&quot;output-word-5-0-0&quot;&gt;&lt;span class=&quot;css-15iwe0d&quot;&gt;to &lt;/span&gt;&lt;/span&gt;&lt;span data-testid=&quot;output-word-5-0-1&quot;&gt;&lt;span class=&quot;css-rh820s&quot;&gt;exchange &lt;/span&gt;&lt;/span&gt;&lt;/span&gt;&lt;span class=&quot;css-1m8t0fv&quot; id=&quot;output-phrase~0~6&quot;&gt;&lt;span data-testid=&quot;output-word-6-0-0&quot;&gt;&lt;span class=&quot;css-rh820s&quot;&gt;data &lt;/span&gt;&lt;/span&gt;&lt;span data-testid=&quot;output-word-6-0-1&quot;&gt;&lt;span class=&quot;css-0&quot;&gt;and &lt;/span&gt;&lt;/span&gt;&lt;/span&gt;&lt;span class=&quot;css-1m8t0fv&quot; id=&quot;output-phrase~0~7&quot;&gt;&lt;span data-testid=&quot;output-word-7-0-0&quot;&gt;&lt;span class=&quot;css-rh820s&quot;&gt;determine &lt;/span&gt;&lt;/span&gt;&lt;/span&gt;&lt;span class=&quot;css-1m8t0fv&quot; id=&quot;output-phrase~0~8&quot;&gt;&lt;span data-testid=&quot;output-word-8-0-0&quot;&gt;&lt;span class=&quot;css-0&quot;&gt;the &lt;/span&gt;&lt;/span&gt;&lt;span data-testid=&quot;output-word-8-0-1&quot;&gt;&lt;span class=&quot;css-0&quot;&gt;current &lt;/span&gt;&lt;/span&gt;&lt;span data-testid=&quot;output-word-8-0-2&quot;&gt;&lt;span class=&quot;css-0&quot;&gt;temperature.&lt;/span&gt;&lt;/span&gt;&lt;/span&gt;&lt;/span&gt;&lt;/span&gt;&lt;/span&gt;&lt;/span&gt;&lt;/span&gt;" style="rounded=0;whiteSpace=wrap;html=1;" vertex="1" parent="1">
          <mxGeometry x="630" y="470" width="160" height="100" as="geometry" />
        </mxCell>
        <mxCell id="gZ9fCFItCHIIKmVfvnyV-15" value="" style="edgeStyle=orthogonalEdgeStyle;rounded=0;orthogonalLoop=1;jettySize=auto;html=1;" edge="1" parent="1" source="gZ9fCFItCHIIKmVfvnyV-12" target="gZ9fCFItCHIIKmVfvnyV-14">
          <mxGeometry relative="1" as="geometry" />
        </mxCell>
        <mxCell id="gZ9fCFItCHIIKmVfvnyV-12" value="&lt;span id=&quot;output-sentence-box~0&quot; class=&quot;output-sentence&quot;&gt;&lt;span class=&quot;css-x5hiaf&quot;&gt;&lt;span id=&quot;output-sentence~0&quot;&gt;&lt;span style=&quot;white-space: initial;&quot;&gt;&lt;span data-testid=&quot;output-sentence-0&quot;&gt;&lt;span class=&quot;css-1m8t0fv&quot; id=&quot;output-phrase~0~0&quot;&gt;&lt;span data-testid=&quot;output-word-0-0-0&quot;&gt;&lt;span class=&quot;css-rh820s&quot;&gt;Within &lt;/span&gt;&lt;/span&gt;&lt;/span&gt;&lt;span class=&quot;css-1m8t0fv&quot; id=&quot;output-phrase~0~1&quot;&gt;&lt;span data-testid=&quot;output-word-1-0-0&quot;&gt;&lt;span class=&quot;css-15iwe0d&quot;&gt;a &lt;/span&gt;&lt;/span&gt;&lt;span data-testid=&quot;output-word-1-0-1&quot;&gt;&lt;span class=&quot;css-15iwe0d&quot;&gt;global &lt;/span&gt;&lt;/span&gt;&lt;span data-testid=&quot;output-word-1-0-2&quot;&gt;&lt;span class=&quot;css-15iwe0d&quot;&gt;variable &lt;/span&gt;&lt;/span&gt;&lt;/span&gt;&lt;span class=&quot;css-1m8t0fv&quot; id=&quot;output-phrase~0~2&quot;&gt;&lt;span data-testid=&quot;output-word-2-0-0&quot;&gt;&lt;span class=&quot;css-15iwe0d&quot;&gt;is &lt;/span&gt;&lt;/span&gt;&lt;/span&gt;&lt;span class=&quot;css-1m8t0fv&quot; id=&quot;output-phrase~0~3&quot;&gt;&lt;span data-testid=&quot;output-word-3-0-0&quot;&gt;&lt;span class=&quot;css-15iwe0d&quot;&gt;the &lt;/span&gt;&lt;/span&gt;&lt;span data-testid=&quot;output-word-3-0-1&quot;&gt;&lt;span class=&quot;css-15iwe0d&quot;&gt;temperature &lt;/span&gt;&lt;/span&gt;&lt;/span&gt;&lt;span class=&quot;css-1m8t0fv&quot; id=&quot;output-phrase~0~4&quot;&gt;&lt;span data-testid=&quot;output-word-4-0-0&quot;&gt;&lt;span class=&quot;css-0&quot;&gt;value.&lt;/span&gt;&lt;/span&gt;&lt;/span&gt;&lt;/span&gt;&lt;/span&gt;&lt;/span&gt;&lt;/span&gt;&lt;/span&gt;" style="rounded=0;whiteSpace=wrap;html=1;" vertex="1" parent="1">
          <mxGeometry x="630" y="650" width="160" height="100" as="geometry" />
        </mxCell>
        <mxCell id="gZ9fCFItCHIIKmVfvnyV-17" value="" style="edgeStyle=orthogonalEdgeStyle;rounded=0;orthogonalLoop=1;jettySize=auto;html=1;" edge="1" parent="1" source="gZ9fCFItCHIIKmVfvnyV-14" target="gZ9fCFItCHIIKmVfvnyV-16">
          <mxGeometry relative="1" as="geometry" />
        </mxCell>
        <mxCell id="gZ9fCFItCHIIKmVfvnyV-14" value="&lt;span id=&quot;output-sentence-box~0&quot; class=&quot;output-sentence&quot;&gt;&lt;span style=&quot;white-space: initial;&quot;&gt;&lt;span data-testid=&quot;output-sentence-0&quot;&gt;&lt;span class=&quot;css-1m8t0fv&quot; id=&quot;output-phrase~0~0&quot;&gt;&lt;span data-testid=&quot;output-word-0-0-0&quot;&gt;&lt;span class=&quot;css-0&quot;&gt;Data &lt;/span&gt;&lt;/span&gt;&lt;/span&gt;&lt;span class=&quot;css-1m8t0fv&quot; id=&quot;output-phrase~0~1&quot;&gt;&lt;span data-testid=&quot;output-word-1-0-0&quot;&gt;&lt;span class=&quot;css-rh820s&quot;&gt;Sending &lt;/span&gt;&lt;/span&gt;&lt;/span&gt;&lt;span class=&quot;css-1m8t0fv&quot; id=&quot;output-phrase~0~2&quot;&gt;&lt;span data-testid=&quot;output-word-2-0-0&quot;&gt;&lt;span class=&quot;css-0&quot;&gt;via &lt;/span&gt;&lt;/span&gt;&lt;/span&gt;&lt;span class=&quot;css-1m8t0fv&quot; id=&quot;output-phrase~0~3&quot;&gt;&lt;span data-testid=&quot;output-word-3-0-0&quot;&gt;&lt;span class=&quot;css-0&quot;&gt;UART:&lt;/span&gt;&lt;/span&gt;&lt;/span&gt;&lt;/span&gt;&lt;/span&gt;&lt;br/&gt;&lt;br/&gt;    &lt;/span&gt;&lt;span id=&quot;output-sentence-box~1&quot; class=&quot;output-sentence&quot;&gt;&lt;span class=&quot;css-x5hiaf&quot;&gt;&lt;span id=&quot;output-sentence~1&quot;&gt;&lt;span style=&quot;white-space: initial;&quot;&gt;&lt;span data-testid=&quot;output-sentence-1&quot;&gt;&lt;span class=&quot;css-1m8t0fv&quot; id=&quot;output-phrase~1~0&quot;&gt;&lt;span data-testid=&quot;output-word-0-1-0&quot;&gt;&lt;span class=&quot;css-0&quot;&gt;The &lt;/span&gt;&lt;/span&gt;&lt;span data-testid=&quot;output-word-0-1-1&quot;&gt;&lt;span class=&quot;css-15iwe0d&quot;&gt;data &lt;/span&gt;&lt;/span&gt;&lt;/span&gt;&lt;span class=&quot;css-1m8t0fv&quot; id=&quot;output-phrase~1~1&quot;&gt;&lt;span data-testid=&quot;output-word-1-1-0&quot;&gt;&lt;span class=&quot;css-2yp7ui&quot;&gt;transmitting &lt;/span&gt;&lt;/span&gt;&lt;/span&gt;&lt;span class=&quot;css-1m8t0fv&quot; id=&quot;output-phrase~1~2&quot;&gt;&lt;span data-testid=&quot;output-word-2-1-0&quot;&gt;&lt;span class=&quot;css-2yp7ui&quot;&gt;job &lt;/span&gt;&lt;/span&gt;&lt;/span&gt;&lt;span class=&quot;css-1m8t0fv&quot; id=&quot;output-phrase~1~3&quot;&gt;&lt;span data-testid=&quot;output-word-3-1-0&quot;&gt;&lt;span class=&quot;css-2yp7ui&quot;&gt;is &lt;/span&gt;&lt;/span&gt;&lt;span data-testid=&quot;output-word-3-1-1&quot;&gt;&lt;span class=&quot;css-2yp7ui&quot;&gt;started &lt;/span&gt;&lt;/span&gt;&lt;/span&gt;&lt;span class=&quot;css-1m8t0fv&quot; id=&quot;output-phrase~1~4&quot;&gt;&lt;span data-testid=&quot;output-word-4-1-0&quot;&gt;&lt;span class=&quot;css-2yp7ui&quot;&gt;by &lt;/span&gt;&lt;/span&gt;&lt;/span&gt;&lt;span class=&quot;css-1m8t0fv&quot; id=&quot;output-phrase~1~5&quot;&gt;&lt;span data-testid=&quot;output-word-5-1-0&quot;&gt;&lt;span class=&quot;css-15iwe0d&quot;&gt;the &lt;/span&gt;&lt;/span&gt;&lt;span data-testid=&quot;output-word-5-1-1&quot;&gt;&lt;span class=&quot;css-15iwe0d&quot;&gt;scheduler &lt;/span&gt;&lt;/span&gt;&lt;/span&gt;&lt;span class=&quot;css-1m8t0fv&quot; id=&quot;output-phrase~1~6&quot;&gt;&lt;span data-testid=&quot;output-word-6-1-0&quot;&gt;&lt;span class=&quot;css-rh820s&quot;&gt;when &lt;/span&gt;&lt;/span&gt;&lt;span data-testid=&quot;output-word-6-1-1&quot;&gt;&lt;span class=&quot;css-rh820s&quot;&gt;it &lt;/span&gt;&lt;/span&gt;&lt;/span&gt;&lt;span class=&quot;css-1m8t0fv&quot; id=&quot;output-phrase~1~7&quot;&gt;&lt;span data-testid=&quot;output-word-7-1-0&quot;&gt;&lt;span class=&quot;css-rh820s&quot;&gt;has &lt;/span&gt;&lt;/span&gt;&lt;span data-testid=&quot;output-word-7-1-1&quot;&gt;&lt;span class=&quot;css-0&quot;&gt;read &lt;/span&gt;&lt;/span&gt;&lt;/span&gt;&lt;span class=&quot;css-1m8t0fv&quot; id=&quot;output-phrase~1~8&quot;&gt;&lt;span data-testid=&quot;output-word-8-1-0&quot;&gt;&lt;span class=&quot;css-0&quot;&gt;the &lt;/span&gt;&lt;/span&gt;&lt;span data-testid=&quot;output-word-8-1-1&quot;&gt;&lt;span class=&quot;css-0&quot;&gt;temperature.&lt;/span&gt;&lt;/span&gt;&lt;/span&gt;&lt;/span&gt;&lt;/span&gt;&lt;/span&gt;&lt;/span&gt;&lt;/span&gt;" style="rounded=0;whiteSpace=wrap;html=1;" vertex="1" parent="1">
          <mxGeometry x="410" y="780" width="160" height="100" as="geometry" />
        </mxCell>
        <mxCell id="gZ9fCFItCHIIKmVfvnyV-19" value="" style="edgeStyle=orthogonalEdgeStyle;rounded=0;orthogonalLoop=1;jettySize=auto;html=1;" edge="1" parent="1" source="gZ9fCFItCHIIKmVfvnyV-16" target="gZ9fCFItCHIIKmVfvnyV-18">
          <mxGeometry relative="1" as="geometry" />
        </mxCell>
        <mxCell id="gZ9fCFItCHIIKmVfvnyV-16" value="&lt;span id=&quot;output-sentence-box~0&quot; class=&quot;output-sentence&quot;&gt;&lt;span class=&quot;css-x5hiaf&quot;&gt;&lt;span id=&quot;output-sentence~0&quot;&gt;&lt;span style=&quot;white-space: initial;&quot;&gt;&lt;span data-testid=&quot;output-sentence-0&quot;&gt;&lt;span class=&quot;css-1m8t0fv&quot; id=&quot;output-phrase~0~0&quot;&gt;&lt;span data-testid=&quot;output-word-0-0-0&quot;&gt;&lt;span class=&quot;css-0&quot;&gt;The &lt;/span&gt;&lt;/span&gt;&lt;span data-testid=&quot;output-word-0-0-1&quot;&gt;&lt;span class=&quot;css-0&quot;&gt;temperature &lt;/span&gt;&lt;/span&gt;&lt;/span&gt;&lt;span class=&quot;css-1m8t0fv&quot; id=&quot;output-phrase~0~1&quot;&gt;&lt;span data-testid=&quot;output-word-1-0-0&quot;&gt;&lt;span class=&quot;css-0&quot;&gt;data &lt;/span&gt;&lt;/span&gt;&lt;/span&gt;&lt;span class=&quot;css-1m8t0fv&quot; id=&quot;output-phrase~0~2&quot;&gt;&lt;span data-testid=&quot;output-word-2-0-0&quot;&gt;&lt;span class=&quot;css-0&quot;&gt;is &lt;/span&gt;&lt;/span&gt;&lt;span data-testid=&quot;output-word-2-0-1&quot;&gt;&lt;span class=&quot;css-rh820s&quot;&gt;sent &lt;/span&gt;&lt;/span&gt;&lt;/span&gt;&lt;span class=&quot;css-1m8t0fv&quot; id=&quot;output-phrase~0~3&quot;&gt;&lt;span data-testid=&quot;output-word-3-0-0&quot;&gt;&lt;span class=&quot;css-1eh0vfs&quot;&gt;to &lt;/span&gt;&lt;/span&gt;&lt;span data-testid=&quot;output-word-3-0-1&quot;&gt;&lt;span class=&quot;css-1ber87j&quot;&gt;an &lt;/span&gt;&lt;/span&gt;&lt;/span&gt;&lt;span class=&quot;css-1m8t0fv&quot; id=&quot;output-phrase~0~4&quot;&gt;&lt;span data-testid=&quot;output-word-4-0-0&quot;&gt;&lt;span class=&quot;css-1ber87j&quot;&gt;external &lt;/span&gt;&lt;/span&gt;&lt;/span&gt;&lt;span class=&quot;css-1m8t0fv&quot; id=&quot;output-phrase~0~5&quot;&gt;&lt;span data-testid=&quot;output-word-5-0-0&quot;&gt;&lt;span class=&quot;css-1ber87j&quot;&gt;server &lt;/span&gt;&lt;/span&gt;&lt;/span&gt;&lt;span class=&quot;css-1m8t0fv&quot; id=&quot;output-phrase~0~6&quot;&gt;&lt;span data-testid=&quot;output-word-6-0-0&quot;&gt;&lt;span class=&quot;css-2yp7ui&quot;&gt;via &lt;/span&gt;&lt;/span&gt;&lt;/span&gt;&lt;span class=&quot;css-1m8t0fv&quot; id=&quot;output-phrase~0~7&quot;&gt;&lt;span data-testid=&quot;output-word-7-0-0&quot;&gt;&lt;span class=&quot;css-15iwe0d&quot;&gt;a &lt;/span&gt;&lt;/span&gt;&lt;span data-testid=&quot;output-word-7-0-1&quot;&gt;&lt;span class=&quot;css-15iwe0d&quot;&gt;serial &lt;/span&gt;&lt;/span&gt;&lt;span data-testid=&quot;output-word-7-0-2&quot;&gt;&lt;span class=&quot;css-15iwe0d&quot;&gt;connection &lt;/span&gt;&lt;/span&gt;&lt;/span&gt;&lt;span class=&quot;css-1m8t0fv&quot; id=&quot;output-phrase~0~8&quot;&gt;&lt;span data-testid=&quot;output-word-8-0-0&quot;&gt;&lt;span class=&quot;css-rh820s&quot;&gt;established &lt;/span&gt;&lt;/span&gt;&lt;/span&gt;&lt;span class=&quot;css-1m8t0fv&quot; id=&quot;output-phrase~0~9&quot;&gt;&lt;span data-testid=&quot;output-word-9-0-0&quot;&gt;&lt;span class=&quot;css-rh820s&quot;&gt;with &lt;/span&gt;&lt;/span&gt;&lt;span data-testid=&quot;output-word-9-0-1&quot;&gt;&lt;span class=&quot;css-0&quot;&gt;the &lt;/span&gt;&lt;/span&gt;&lt;/span&gt;&lt;span class=&quot;css-1m8t0fv&quot; id=&quot;output-phrase~0~10&quot;&gt;&lt;span data-testid=&quot;output-word-10-0-0&quot;&gt;&lt;span class=&quot;css-0&quot;&gt;UART &lt;/span&gt;&lt;/span&gt;&lt;/span&gt;&lt;span class=&quot;css-1m8t0fv&quot; id=&quot;output-phrase~0~11&quot;&gt;&lt;span data-testid=&quot;output-word-11-0-0&quot;&gt;&lt;span class=&quot;css-0&quot;&gt;driver.&lt;/span&gt;&lt;/span&gt;&lt;/span&gt;&lt;/span&gt;&lt;/span&gt;&lt;/span&gt;&lt;/span&gt;&lt;/span&gt;" style="rounded=0;whiteSpace=wrap;html=1;" vertex="1" parent="1">
          <mxGeometry x="170" y="780" width="160" height="100" as="geometry" />
        </mxCell>
        <mxCell id="gZ9fCFItCHIIKmVfvnyV-18" value="&lt;span id=&quot;output-sentence-box~0&quot; class=&quot;output-sentence&quot;&gt;&lt;span class=&quot;css-x5hiaf&quot;&gt;&lt;span id=&quot;output-sentence~0&quot;&gt;&lt;span style=&quot;white-space: initial;&quot;&gt;&lt;span data-testid=&quot;output-sentence-0&quot;&gt;&lt;span class=&quot;css-1m8t0fv&quot; id=&quot;output-phrase~0~0&quot;&gt;&lt;span data-testid=&quot;output-word-0-0-0&quot;&gt;&lt;span class=&quot;css-rh820s&quot;&gt;Repetition: &lt;/span&gt;&lt;/span&gt;&lt;/span&gt;&lt;span class=&quot;css-1m8t0fv&quot; id=&quot;output-phrase~0~1&quot;&gt;&lt;span data-testid=&quot;output-word-1-0-0&quot;&gt;&lt;span class=&quot;css-rh820s&quot;&gt;Upon &lt;/span&gt;&lt;/span&gt;&lt;/span&gt;&lt;span class=&quot;css-1m8t0fv&quot; id=&quot;output-phrase~0~2&quot;&gt;&lt;span data-testid=&quot;output-word-2-0-0&quot;&gt;&lt;span class=&quot;css-rh820s&quot;&gt;completion &lt;/span&gt;&lt;/span&gt;&lt;span data-testid=&quot;output-word-2-0-1&quot;&gt;&lt;span class=&quot;css-rh820s&quot;&gt;of &lt;/span&gt;&lt;/span&gt;&lt;/span&gt;&lt;span class=&quot;css-1m8t0fv&quot; id=&quot;output-phrase~0~3&quot;&gt;&lt;span data-testid=&quot;output-word-3-0-0&quot;&gt;&lt;span class=&quot;css-0&quot;&gt;the &lt;/span&gt;&lt;/span&gt;&lt;span data-testid=&quot;output-word-3-0-1&quot;&gt;&lt;span class=&quot;css-0&quot;&gt;data &lt;/span&gt;&lt;/span&gt;&lt;/span&gt;&lt;span class=&quot;css-1m8t0fv&quot; id=&quot;output-phrase~0~4&quot;&gt;&lt;span data-testid=&quot;output-word-4-0-0&quot;&gt;&lt;span class=&quot;css-0&quot;&gt;sending &lt;/span&gt;&lt;/span&gt;&lt;/span&gt;&lt;span class=&quot;css-1m8t0fv&quot; id=&quot;output-phrase~0~5&quot;&gt;&lt;span data-testid=&quot;output-word-5-0-0&quot;&gt;&lt;span class=&quot;css-0&quot;&gt;task, &lt;/span&gt;&lt;/span&gt;&lt;/span&gt;&lt;span class=&quot;css-1m8t0fv&quot; id=&quot;output-phrase~0~6&quot;&gt;&lt;span data-testid=&quot;output-word-6-0-0&quot;&gt;&lt;span class=&quot;css-1eh0vfs&quot;&gt;the &lt;/span&gt;&lt;/span&gt;&lt;span data-testid=&quot;output-word-6-0-1&quot;&gt;&lt;span class=&quot;css-1eh0vfs&quot;&gt;scheduler &lt;/span&gt;&lt;/span&gt;&lt;/span&gt;&lt;span class=&quot;css-1m8t0fv&quot; id=&quot;output-phrase~0~7&quot;&gt;&lt;span data-testid=&quot;output-word-7-0-0&quot;&gt;&lt;span class=&quot;css-1eh0vfs&quot;&gt;resets &lt;/span&gt;&lt;/span&gt;&lt;/span&gt;&lt;span class=&quot;css-1m8t0fv&quot; id=&quot;output-phrase~0~8&quot;&gt;&lt;span data-testid=&quot;output-word-8-0-0&quot;&gt;&lt;span class=&quot;css-1eh0vfs&quot;&gt;and &lt;/span&gt;&lt;/span&gt;&lt;/span&gt;&lt;span class=&quot;css-1m8t0fv&quot; id=&quot;output-phrase~0~9&quot;&gt;&lt;span data-testid=&quot;output-word-9-0-0&quot;&gt;&lt;span class=&quot;css-rh820s&quot;&gt;awaits &lt;/span&gt;&lt;/span&gt;&lt;/span&gt;&lt;span class=&quot;css-1m8t0fv&quot; id=&quot;output-phrase~0~10&quot;&gt;&lt;span data-testid=&quot;output-word-10-0-0&quot;&gt;&lt;span class=&quot;css-0&quot;&gt;the &lt;/span&gt;&lt;/span&gt;&lt;span data-testid=&quot;output-word-10-0-1&quot;&gt;&lt;span class=&quot;css-rh820s&quot;&gt;subsequent &lt;/span&gt;&lt;/span&gt;&lt;/span&gt;&lt;span class=&quot;css-1m8t0fv&quot; id=&quot;output-phrase~0~11&quot;&gt;&lt;span data-testid=&quot;output-word-11-0-0&quot;&gt;&lt;span class=&quot;css-0&quot;&gt;timer &lt;/span&gt;&lt;/span&gt;&lt;/span&gt;&lt;span class=&quot;css-1m8t0fv&quot; id=&quot;output-phrase~0~12&quot;&gt;&lt;span data-testid=&quot;output-word-12-0-0&quot;&gt;&lt;span class=&quot;css-0&quot;&gt;interrupt &lt;/span&gt;&lt;/span&gt;&lt;/span&gt;&lt;span class=&quot;css-1m8t0fv&quot; id=&quot;output-phrase~0~13&quot;&gt;&lt;span data-testid=&quot;output-word-13-0-0&quot;&gt;&lt;span class=&quot;css-0&quot;&gt;to &lt;/span&gt;&lt;/span&gt;&lt;span data-testid=&quot;output-word-13-0-1&quot;&gt;&lt;span class=&quot;css-rh820s&quot;&gt;initiate &lt;/span&gt;&lt;/span&gt;&lt;/span&gt;&lt;span class=&quot;css-1m8t0fv&quot; id=&quot;output-phrase~0~14&quot;&gt;&lt;span data-testid=&quot;output-word-14-0-0&quot;&gt;&lt;span class=&quot;css-0&quot;&gt;the &lt;/span&gt;&lt;/span&gt;&lt;span data-testid=&quot;output-word-14-0-1&quot;&gt;&lt;span class=&quot;css-0&quot;&gt;process &lt;/span&gt;&lt;/span&gt;&lt;/span&gt;&lt;span class=&quot;css-1m8t0fv&quot; id=&quot;output-phrase~0~15&quot;&gt;&lt;span data-testid=&quot;output-word-15-0-0&quot;&gt;&lt;span class=&quot;css-rh820s&quot;&gt;again.&lt;/span&gt;&lt;/span&gt;&lt;/span&gt;&lt;/span&gt;&lt;/span&gt;&lt;/span&gt;&lt;/span&gt;&lt;/span&gt;" style="rounded=0;whiteSpace=wrap;html=1;" vertex="1" parent="1">
          <mxGeometry x="170" y="600" width="160" height="100" as="geometry" />
        </mxCell>
        <mxCell id="gZ9fCFItCHIIKmVfvnyV-20" style="edgeStyle=orthogonalEdgeStyle;rounded=0;orthogonalLoop=1;jettySize=auto;html=1;entryX=0.568;entryY=1.033;entryDx=0;entryDy=0;entryPerimeter=0;" edge="1" parent="1" source="gZ9fCFItCHIIKmVfvnyV-18" target="gZ9fCFItCHIIKmVfvnyV-1">
          <mxGeometry relative="1" as="geometry" />
        </mxCell>
      </root>
    </mxGraphModel>
  </diagram>
</mxfile>
